<svg xmlns="http://www.w3.org/2000/svg" width="512" height="512" style="overflow: visible;" viewBox="0 0 512 512" data-bbox="1.4210854715202004e-14 -1.4210854715202004e-14 512 512"><defs transform="matrix(1, 0, 0, 1, 0, 0)" data-uid="o_f2f7fkleh_5"/><path transform="matrix(5.119999885559082, 0, 0, 5.119999885559082, -0.6764532934307539, -1.4210854715202004e-14)" fill="none" data-type="circle" data-cx="50" data-cy="50" data-r="50" d="M50,50m-50,0a50,50 0 1, 0 100,0a50,50 0 1, 0 -100,0" data-uid="o_f2f7fkleh_6"/><g transform="matrix(14.896848678588867, 0, 0, 14.896848678588867, -659.2538452148438, -221.30905151367188)" fill="#000000" data-uid="o_f2f7fkleh_7"><path d="M24.07 23.195a5.105 5.105 0 0 1 .368-3.46A15.467 15.467 0 0 0 26 13c0-6.374-4.206-11-10-11S6 6.626 6 13c0 2.31.54 4.639 1.562 6.736a5.105 5.105 0 0 1 .368 3.46l-.9 3.632a1 1 0 0 0 .514 1.131A18.635 18.635 0 0 0 15.998 30H16c2.844 0 5.697-.67 8.249-1.938l.197-.098a1 1 0 0 0 .526-1.136l-.9-3.633zM19.5 16h-7C10.57 16 9 14.43 9 12.5S10.57 9 12.5 9h7c1.93 0 3.5 1.57 3.5 3.5S21.43 16 19.5 16z" transform="matrix(1, 0, 0, 1, 45.57571792602539, 16.04094123840332)" fill="#000000" data-uid="o_f2f7fkleh_8"/></g><g transform="matrix(4.007121562957764, 1.0285707712173462, -1.0285707712173462, 4.007121562957764, 309.3858642578125, 308.7398376464844)" fill="rgba(255,255,255,1)" data-uid="o_f2f7fkleh_9"><path d="M12.7 11.9l7.6-7.6C19.9 4.1 19.4 4 19 4H5C4.6 4 4.1 4.1 3.7 4.3l7.6 7.6C11.7 12.3 12.3 12.3 12.7 11.9z M21.7 5.7  l-7.6 7.6c-1.2 1.2-3.1 1.2-4.2 0c0 0 0 0 0 0L2.3 5.7C2.1 6.1 2 6.6 2 7v10c0 1.7 1.3 3 3 3h14c1.7 0 3-1.3 3-3V7  C22 6.6 21.9 6.1 21.7 5.7z" transform="matrix(1, 0, 0, 1, 0, 0)" fill="rgba(255,255,255,1)" data-uid="o_f2f7fkleh_10"/></g><path text="SMS" fill="#000000" space="preserve" text-anchor="middle" offset="0.5" font-scale="contain" font-size="48" font-family="Fugaz One" transform="matrix(1.6415469646453857, 0, 0, 1.6370046138763428, 257.5575866699219, 232.6764373779297)" data-fl-textpath="" font-weight="400" font-style="normal" stroke="none" stroke-width="0" data-uid="o_f2f7fkleh_11" d="M-41.568000000000005-9.84L-41.568000000000005-9.84Q-41.568000000000005-6.53 -36.788000000000004-6.53Q-32.018-6.53 -32.018-9.5L-32.018-9.5Q-32.018-11.09 -33.648-12.1Q-35.278000000000006-13.1 -37.608000000000004-13.78Q-39.938-14.45 -42.268-15.34Q-44.588-16.22 -46.228-18.12Q-47.858000000000004-20.02 -47.858000000000004-22.85L-47.858000000000004-22.85Q-47.858000000000004-34.9 -32.348-34.9L-32.348-34.9Q-26.688000000000002-34.9 -23.788000000000004-32.76Q-20.878000000000004-30.62 -20.878000000000004-26.83L-20.878000000000004-26.83Q-20.878000000000004-25.44 -21.238000000000003-24.17Q-21.598000000000003-22.9 -21.988000000000003-22.37L-21.988000000000003-22.37L-22.368000000000002-21.79L-30.868000000000002-21.79Q-29.808000000000003-22.9 -29.808000000000003-24.58L-29.808000000000003-24.58Q-29.808000000000003-27.7 -33.888000000000005-27.7L-33.888000000000005-27.7Q-39.028000000000006-27.7 -39.028000000000006-24.43L-39.028000000000006-24.43Q-39.028000000000006-22.8 -37.388000000000005-21.84Q-35.758-20.88 -33.428000000000004-20.33Q-31.108000000000004-19.78 -28.748000000000005-18.96Q-26.398000000000003-18.14 -24.768000000000004-16.25Q-23.138-14.35 -23.138-11.33L-23.138-11.33Q-23.138-5.23 -26.788000000000004-2.28Q-30.428000000000004 0.67 -38.018 0.67Q-45.598000000000006 0.67 -48.388000000000005-2.02L-48.388000000000005-2.02Q-50.448-4.03 -50.448-7.58L-50.448-7.58Q-50.448-8.93 -50.158-10.51L-50.158-10.51L-50.018-11.28L-41.378-11.28L-41.468-10.7Q-41.568000000000005-10.22 -41.568000000000005-9.84ZM-13.534000000000004-34.56L-4.514000000000003-34.56L 0.6259999999999977-18L 11.665999999999997-34.56L 20.735999999999997-34.56L 14.635999999999996 0L 5.955999999999996 0L 9.405999999999995-19.49L 2.0159999999999947-7.87L-4.2740000000000045-7.87L-7.534000000000004-19.49L-10.994000000000003 0L-19.634000000000004 0L-13.534000000000004-34.56ZM 30.623999999999995-9.84L 30.623999999999995-9.84Q 30.623999999999995-6.53  35.403999999999996-6.53Q 40.17399999999999-6.53  40.17399999999999-9.5L 40.17399999999999-9.5Q 40.17399999999999-11.09  38.544-12.1Q 36.914-13.1  34.583999999999996-13.78Q 32.254-14.45  29.924-15.34Q 27.603999999999996-16.22  25.964-18.12Q 24.333999999999996-20.02  24.333999999999996-22.85L 24.333999999999996-22.85Q 24.333999999999996-34.9  39.843999999999994-34.9L 39.843999999999994-34.9Q 45.504-34.9  48.403999999999996-32.76Q 51.31399999999999-30.62  51.31399999999999-26.83L 51.31399999999999-26.83Q 51.31399999999999-25.44  50.95399999999999-24.17Q 50.593999999999994-22.9  50.20399999999999-22.37L 50.20399999999999-22.37L 49.824-21.79L 41.324-21.79Q 42.384-22.9  42.384-24.58L 42.384-24.58Q 42.384-27.7  38.304-27.7L 38.304-27.7Q 33.163999999999994-27.7  33.163999999999994-24.43L 33.163999999999994-24.43Q 33.163999999999994-22.8  34.803999999999995-21.84Q 36.434-20.88  38.763999999999996-20.33Q 41.083999999999996-19.78  43.443999999999996-18.96Q 45.794-18.14  47.42399999999999-16.25Q 49.054-14.35  49.054-11.33L 49.054-11.33Q 49.054-5.23  45.403999999999996-2.28Q 41.763999999999996 0.67  34.174 0.67Q 26.593999999999998 0.67  23.803999999999995-2.02L 23.803999999999995-2.02Q 21.743999999999996-4.03  21.743999999999996-7.58L 21.743999999999996-7.58Q 21.743999999999996-8.93  22.033999999999995-10.51L 22.033999999999995-10.51L 22.173999999999996-11.28L 30.813999999999997-11.28L 30.723999999999997-10.7Q 30.623999999999995-10.22  30.623999999999995-9.84Z"/><path d="M165.494 17.985C136.127 19.907 88.372 0.694 88.372 0.694S40.615 19.907 11.248 17.985 c0 0-21.407 117.195 77.124 158.089C186.902 135.18 165.494 17.985 165.494 17.985z" transform="matrix(0.724593460559845, -0.15213412046432495, 0.15213412046432495, 0.724593460559845, 98.16858673095703, 301.5835266113281)" fill="#ffffff" data-uid="o_f2f7fkleh_12"/><path text="AES" fill="#000000" space="preserve" text-anchor="middle" offset="0.5" font-scale="contain" font-size="48" font-family="Fugaz One" transform="matrix(0.6338329315185547, -0.14047358930110931, 0.14008477330207825, 0.6320787072181702, 173.15707397460938, 336.9080810546875)" data-fl-textpath="" font-weight="400" font-style="normal" stroke="none" stroke-width="0" data-uid="o_f2f7fkleh_13" d="M-18.624 0L-27.744 0L-27.454-7.54L-35.474000000000004-7.54L-37.824 0L-46.994 0L-34.653999999999996-34.56L-18.814-34.56L-18.624 0ZM-26.684-26.16L-29.714-26.16L-33.504-13.97L-27.214-13.97L-26.684-26.16ZM 11.374000000000002-7.49L 10.034000000000002 0L-14.065999999999999 0L-7.965999999999999-34.56L 16.124000000000002-34.56L 14.784000000000002-27.07L-0.6759999999999984-27.07L-1.7759999999999998-20.59L 10.994-20.59L 9.644000000000002-13.1L-3.1159999999999997-13.1L-4.075999999999999-7.49L 11.374000000000002-7.49ZM 24.72-9.84L 24.72-9.84Q 24.72-6.53  29.5-6.53Q 34.269999999999996-6.53  34.269999999999996-9.5L 34.269999999999996-9.5Q 34.269999999999996-11.09  32.64-12.1Q 31.01-13.1  28.68-13.78Q 26.35-14.45  24.020000000000003-15.34Q 21.7-16.22  20.060000000000002-18.12Q 18.43-20.02  18.43-22.85L 18.43-22.85Q 18.43-34.9  33.94-34.9L 33.94-34.9Q 39.6-34.9  42.5-32.76Q 45.41-30.62  45.41-26.83L 45.41-26.83Q 45.41-25.44  45.05-24.17Q 44.69-22.9  44.3-22.37L 44.3-22.37L 43.92-21.79L 35.42-21.79Q 36.480000000000004-22.9  36.480000000000004-24.58L 36.480000000000004-24.58Q 36.480000000000004-27.7  32.400000000000006-27.7L 32.400000000000006-27.7Q 27.259999999999998-27.7  27.259999999999998-24.43L 27.259999999999998-24.43Q 27.259999999999998-22.8  28.9-21.84Q 30.53-20.88  32.86-20.33Q 35.18-19.78  37.54-18.96Q 39.89-18.14  41.519999999999996-16.25Q 43.150000000000006-14.35  43.150000000000006-11.33L 43.150000000000006-11.33Q 43.150000000000006-5.23  39.5-2.28Q 35.86 0.67  28.270000000000003 0.67Q 20.69 0.67  17.9-2.02L 17.9-2.02Q 15.84-4.03  15.84-7.58L 15.84-7.58Q 15.84-8.93  16.13-10.51L 16.13-10.51L 16.27-11.28L 24.91-11.28L 24.82-10.7Q 24.72-10.22  24.72-9.84Z"/></svg>